# xmcd
#
# Track frame offsets:
#	150
#	4344
#	20542
#	38790
#	58476
#	78789
#	98203
#	118911
#	138914
#	144018
#	162331
#	169495
#	189497
#	210969
#	231440
#	250085
#	275259
#
# Disc length: 3916 seconds
#
# Revision: 0
# Processed by: cddbd v1.5.1PL0 Copyright (c) Steve Scherf et al.
# Submitted via: dBpowerAMP V4.0
#
DISCID=e80f4a11
DTITLE=Dru Hill - Enter The Dru
DYEAR=1998
DGENRE=R&B
TTITLE0=Enter The Dru (Interlude)
TTITLE1=Real Freak
TTITLE2=How Deep Is Your Love
TTITLE3=This Is What We Do
TTITLE4=Holding You
TTITLE5=I'm Wondering
TTITLE6=You Are Everything
TTITLE7=I'll Be The One
TTITLE8=Nowhere Without You (Interlude)
TTITLE9=One Good Reason
TTITLE10=Angel (Interlude)
TTITLE11=Angel
TTITLE12=What Do I Do With The Love
TTITLE13=Beauty
TTITLE14=These Are The Times
TTITLE15=The Love We Had (Stays On My Mind)
TTITLE16=What Are We Gonna Do
EXTD=
EXTT0=
EXTT1=
EXTT2=
EXTT3=
EXTT4=
EXTT5=
EXTT6=
EXTT7=
EXTT8=
EXTT9=
EXTT10=
EXTT11=
EXTT12=
EXTT13=
EXTT14=
EXTT15=
EXTT16=
PLAYORDER=
